<svg width="31" height="31" viewBox="0 0 31 31" fill="none" xmlns="http://www.w3.org/2000/svg">
<g clip-path="url(#clip0_4_172)">
<path d="M15.8583 3.17218C19.2847 3.17218 19.7123 3.18479 21.0566 3.24785C22.3997 3.3109 23.314 3.52151 24.1186 3.83426C24.9509 4.15459 25.6521 4.58841 26.3533 5.28832C26.9945 5.91875 27.4907 6.68133 27.8073 7.52301C28.1188 8.32634 28.3307 9.24191 28.3937 10.585C28.453 11.9293 28.4694 12.3569 28.4694 15.7833C28.4694 19.2097 28.4568 19.6372 28.3937 20.9816C28.3307 22.3247 28.1188 23.239 27.8073 24.0436C27.4916 24.8857 26.9953 25.6485 26.3533 26.2783C25.7227 26.9193 24.9601 27.4155 24.1186 27.7323C23.3153 28.0438 22.3997 28.2557 21.0566 28.3187C19.7123 28.378 19.2847 28.3944 15.8583 28.3944C12.4319 28.3944 12.0043 28.3818 10.66 28.3187C9.31692 28.2557 8.40261 28.0438 7.59803 27.7323C6.75601 27.4164 5.9933 26.9201 5.36334 26.2783C4.72194 25.6479 4.22573 24.8853 3.90928 24.0436C3.59652 23.2402 3.38591 22.3247 3.32286 20.9816C3.26359 19.6372 3.24719 19.2097 3.24719 15.7833C3.24719 12.3569 3.2598 11.9293 3.32286 10.585C3.38591 9.24065 3.59652 8.3276 3.90928 7.52301C4.22485 6.68082 4.72118 5.91802 5.36334 5.28832C5.99348 4.64671 6.75614 4.15046 7.59803 3.83426C8.40261 3.52151 9.31566 3.3109 10.66 3.24785C12.0043 3.18857 12.4319 3.17218 15.8583 3.17218ZM15.8583 9.47774C14.186 9.47774 12.5821 10.1421 11.3996 11.3246C10.2171 12.5071 9.55275 14.111 9.55275 15.7833C9.55275 17.4556 10.2171 19.0595 11.3996 20.242C12.5821 21.4245 14.186 22.0888 15.8583 22.0888C17.5306 22.0888 19.1345 21.4245 20.317 20.242C21.4995 19.0595 22.1639 17.4556 22.1639 15.7833C22.1639 14.111 21.4995 12.5071 20.317 11.3246C19.1345 10.1421 17.5306 9.47774 15.8583 9.47774ZM24.0555 9.16246C24.0555 8.74437 23.8894 8.34341 23.5938 8.04778C23.2982 7.75215 22.8972 7.58607 22.4791 7.58607C22.0611 7.58607 21.6601 7.75215 21.3645 8.04778C21.0688 8.34341 20.9027 8.74437 20.9027 9.16246C20.9027 9.58054 21.0688 9.9815 21.3645 10.2771C21.6601 10.5728 22.0611 10.7388 22.4791 10.7388C22.8972 10.7388 23.2982 10.5728 23.5938 10.2771C23.8894 9.9815 24.0555 9.58054 24.0555 9.16246ZM15.8583 12C16.8617 12 17.824 12.3986 18.5335 13.1081C19.243 13.8176 19.6416 14.7799 19.6416 15.7833C19.6416 16.7867 19.243 17.749 18.5335 18.4585C17.824 19.168 16.8617 19.5666 15.8583 19.5666C14.8549 19.5666 13.8926 19.168 13.1831 18.4585C12.4736 17.749 12.075 16.7867 12.075 15.7833C12.075 14.7799 12.4736 13.8176 13.1831 13.1081C13.8926 12.3986 14.8549 12 15.8583 12Z" fill="url(#paint0_linear_4_172)"/>
</g>
<defs>
<linearGradient id="paint0_linear_4_172" x1="3.24719" y1="3.17218" x2="31.3228" y2="24.6676" gradientUnits="userSpaceOnUse">
<stop stop-color="#7A7A7A"/>
<stop offset="1" stop-color="#494949"/>
</linearGradient>
<clipPath id="clip0_4_172">
<rect width="30.2667" height="30.2667" fill="white" transform="translate(0.725098 0.649933)"/>
</clipPath>
</defs>
</svg>
