<svg width="31" height="31" viewBox="0 0 31 31" fill="none" xmlns="http://www.w3.org/2000/svg">
<g clip-path="url(#clip0_4_175)">
<path d="M28.674 7.58281C27.7113 8.00868 26.6903 8.28837 25.6449 8.41262C26.7467 7.75361 27.5715 6.71645 27.9653 5.49441C26.9312 6.10983 25.7974 6.54113 24.6158 6.77444C23.8221 5.92518 22.77 5.36195 21.6231 5.1723C20.4762 4.98266 19.2989 5.17723 18.274 5.72577C17.2491 6.2743 16.4342 7.14607 15.9559 8.20554C15.4776 9.26501 15.3627 10.4528 15.6291 11.5843C13.532 11.4792 11.4805 10.9342 9.60766 9.98481C7.73486 9.03537 6.08266 7.70268 4.75833 6.07326C4.28956 6.87842 4.04322 7.7937 4.04454 8.72538C4.04454 10.554 4.97524 12.1695 6.39021 13.1153C5.55284 13.0889 4.7339 12.8628 4.00166 12.4557V12.5213C4.00191 13.7392 4.42334 14.9195 5.19448 15.8621C5.96562 16.8047 7.03902 17.4516 8.23269 17.6931C7.45536 17.9038 6.64029 17.9348 5.84919 17.7839C6.18574 18.8322 6.84169 19.749 7.72521 20.4059C8.60872 21.0629 9.67556 21.427 10.7764 21.4475C9.68231 22.3067 8.42965 22.9419 7.08997 23.3167C5.7503 23.6914 4.34989 23.7985 2.96881 23.6317C5.37967 25.1822 8.18615 26.0053 11.0525 26.0026C20.7543 26.0026 26.0598 17.9655 26.0598 10.9954C26.0598 10.7684 26.0535 10.5389 26.0434 10.3144C27.076 9.56801 27.9673 8.64343 28.6753 7.58407L28.674 7.58281Z" fill="url(#paint0_linear_4_175)"/>
</g>
<defs>
<linearGradient id="paint0_linear_4_175" x1="2.96881" y1="5.10164" x2="27.0254" y2="27.7547" gradientUnits="userSpaceOnUse">
<stop stop-color="#7A7A7A"/>
<stop offset="1" stop-color="#494949"/>
</linearGradient>
<clipPath id="clip0_4_175">
<rect width="30.2667" height="30.2667" fill="white" transform="translate(0.725098 0.450012)"/>
</clipPath>
</defs>
</svg>
