<svg width="22" height="18" viewBox="0 0 22 18" fill="none" xmlns="http://www.w3.org/2000/svg">
<path d="M11 3.43323e-05C16.392 3.43323e-05 20.878 3.88003 21.819 9.00003C20.879 14.12 16.392 18 11 18C5.60797 18 1.12197 14.12 0.180969 9.00003C1.12097 3.88003 5.60797 3.43323e-05 11 3.43323e-05ZM11 16C13.0394 15.9996 15.0184 15.3069 16.6128 14.0352C18.2073 12.7635 19.3229 10.9883 19.777 9.00003C19.3212 7.01334 18.2049 5.24004 16.6106 3.97006C15.0163 2.70008 13.0383 2.00856 11 2.00856C8.96167 2.00856 6.98366 2.70008 5.38935 3.97006C3.79503 5.24004 2.67874 7.01334 2.22297 9.00003C2.67707 10.9883 3.79264 12.7635 5.38711 14.0352C6.98158 15.3069 8.9605 15.9996 11 16ZM11 13.5C9.8065 13.5 8.6619 13.0259 7.81799 12.182C6.97408 11.3381 6.49997 10.1935 6.49997 9.00003C6.49997 7.80656 6.97408 6.66197 7.81799 5.81805C8.6619 4.97414 9.8065 4.50003 11 4.50003C12.1934 4.50003 13.338 4.97414 14.182 5.81805C15.0259 6.66197 15.5 7.80656 15.5 9.00003C15.5 10.1935 15.0259 11.3381 14.182 12.182C13.338 13.0259 12.1934 13.5 11 13.5ZM11 11.5C11.663 11.5 12.2989 11.2366 12.7677 10.7678C13.2366 10.299 13.5 9.66308 13.5 9.00003C13.5 8.33699 13.2366 7.70111 12.7677 7.23227C12.2989 6.76343 11.663 6.50003 11 6.50003C10.3369 6.50003 9.70105 6.76343 9.2322 7.23227C8.76336 7.70111 8.49997 8.33699 8.49997 9.00003C8.49997 9.66308 8.76336 10.299 9.2322 10.7678C9.70105 11.2366 10.3369 11.5 11 11.5Z" fill="white"/>
</svg>
